<?xml version="1.0" standalone="no"?><!DOCTYPE svg PUBLIC "-//W3C//DTD SVG 1.1//EN" "http://www.w3.org/Graphics/SVG/1.1/DTD/svg11.dtd"><svg class="icon" width="200px" height="200.00px" viewBox="0 0 1024 1024" version="1.1" xmlns="http://www.w3.org/2000/svg"><path d="M185.856 901.12c-29.184 0-54.784-3.072-70.144-10.752-18.944-9.216-22.528-23.552-22.528-31.232-7.68-237.568 26.112-413.696 100.352-523.776 71.68-106.496 166.4-125.44 197.632-132.096 13.824-3.072 27.136 0.512 37.888 9.728 35.328 29.696 33.792 120.32 33.28 138.24-0.512 11.264-9.728 19.968-20.992 19.968-11.264-0.512-19.968-9.728-19.968-20.992 1.536-41.984-5.632-94.72-18.432-105.472-1.024-1.024-1.536-1.024-3.072-0.512-47.104 9.728-115.712 31.744-171.52 114.688C159.232 460.8 128 627.712 134.656 854.528c27.136 15.872 185.344 0.512 224.256-27.648 49.664-35.84 72.704-133.12 64-273.408-0.512-11.264 8.192-20.992 19.456-21.504 11.264-0.512 20.992 8.192 21.504 19.456 9.216 157.184-18.944 264.192-80.896 309.248-32.256 21.504-126.464 40.448-197.12 40.448zM190.976 737.792c-2.048 0-4.608-0.512-6.656-1.536-7.68-3.584-10.752-12.8-7.168-20.48 82.432-174.08 211.968-253.44 281.6-295.936 10.24-6.144 18.944-11.776 26.624-16.384 7.168-4.608 11.264-12.8 11.264-21.504V87.04c0-8.704 6.656-15.36 15.36-15.36s15.36 6.656 15.36 15.36v295.424c0 18.944-9.216 36.352-25.088 47.104-7.68 5.12-16.896 10.752-27.136 17.408-71.68 44.032-191.488 117.248-269.824 283.136-3.072 4.608-8.192 7.68-14.336 7.68zM238.592 589.824c-31.744 0-55.296-8.192-56.832-9.216-8.192-3.072-11.776-11.776-9.216-19.968 3.072-8.192 11.776-11.776 19.456-9.216 0.512 0 54.272 19.456 103.936-6.144 7.68-4.096 16.896-1.024 20.48 6.656 4.096 7.68 1.024 16.896-6.656 20.48-24.576 13.824-49.664 17.408-71.168 17.408zM328.704 659.456c-4.096 0-8.704-2.048-11.776-5.12-1.536-1.536-37.376-44.544-17.92-107.008a15.54944 15.54944 0 0 1 29.696 9.216c-14.336 46.08 10.752 76.8 11.776 77.824 5.632 6.656 4.608 16.384-2.048 21.504-2.56 2.048-6.144 3.584-9.728 3.584zM838.144 901.12c-70.656 0-164.864-18.944-196.608-41.472-62.464-45.056-90.112-152.064-80.896-309.248 0.512-11.264 10.24-19.968 21.504-19.456 11.264 0.512 19.968 10.24 19.456 21.504-8.192 140.288 14.336 237.568 64 273.408 38.912 28.16 197.632 43.52 224.256 27.648 6.656-226.816-24.576-393.216-93.696-495.616-56.32-82.944-124.928-105.472-171.52-114.688-2.048-0.512-2.048 0-3.072 0.512-12.8 10.752-19.968 63.488-18.432 105.472 0.512 11.264-8.192 20.992-19.968 20.992-11.264 0.512-20.992-8.192-20.992-19.968-0.512-17.92-2.048-108.544 33.28-138.24 10.752-9.216 24.064-12.288 37.888-9.728 125.44 25.6 179.712 105.472 197.632 132.096 74.24 110.08 108.032 286.208 100.352 523.776 0 7.68-3.584 22.016-22.528 31.232-15.872 8.704-41.472 11.776-70.656 11.776zM833.024 737.792c-5.632 0-11.264-3.072-13.824-8.704-78.336-165.376-198.144-239.104-269.824-283.136-10.24-6.656-19.456-11.776-27.136-17.408-15.872-10.24-25.088-28.16-25.088-47.104V87.04c0-8.704 6.656-15.36 15.36-15.36s15.36 6.656 15.36 15.36v295.424c0 8.704 4.096 16.384 11.264 21.504 7.168 5.12 16.384 10.24 26.624 16.384 69.632 42.496 199.168 122.368 281.6 295.936 3.584 7.68 0.512 16.896-7.168 20.48-3.072 1.024-5.12 1.024-7.168 1.024zM785.408 589.824c-21.504 0-46.592-4.096-71.68-16.896-7.68-4.096-10.752-13.312-6.656-20.48 4.096-7.68 13.312-10.752 20.48-6.656 49.664 25.6 103.424 6.144 103.936 6.144 8.192-3.072 16.896 1.024 19.968 9.216 3.072 8.192-1.024 16.896-9.216 19.968-1.536 0.512-25.088 8.704-56.832 8.704zM695.296 659.456c-3.584 0-7.168-1.024-10.24-3.584-6.144-5.632-7.168-15.36-1.536-21.504 1.024-1.536 26.112-32.256 11.776-77.824a15.54944 15.54944 0 0 1 29.696-9.216c19.456 62.464-16.384 105.472-17.92 107.008-3.584 3.072-7.68 5.12-11.776 5.12z" /></svg>