<?xml version="1.0" standalone="no"?><!DOCTYPE svg PUBLIC "-//W3C//DTD SVG 1.1//EN" "http://www.w3.org/Graphics/SVG/1.1/DTD/svg11.dtd"><svg class="icon" width="200px" height="200.00px" viewBox="0 0 1024 1024" version="1.1" xmlns="http://www.w3.org/2000/svg"><path fill="#000000" d="M760.695467 88.064c-17.665552-0.145842-35.390061 6.410861-48.909964 19.710448-20.914424 20.573091-25.848242 51.463758-14.708364 76.914813l-247.190497 251.118933c-25.010424-10.795442-55.246352-6.168824-75.791515 14.038109-21.069576 20.722036-25.935127 51.910594-14.481842 77.467152l-57.856 62.113357 31.05823 33.345164 13.994667-15.024873a306.393212 306.393212 0 0 1 17.944824 19.362909 255.872776 255.872776 0 0 1 17.358352 22.993455l39.129212-17.47937a291.995152 291.995152 0 0 0-19.809746-26.242327v-0.006206c-8.36577-9.907976-17.408-19.344291-26.918788-28.3648l15.927855-17.097697 2.296242 2.259006 1.359128-1.380849c25.174885 11.288824 55.885576 6.78943 76.675878-13.656436 21.342642-20.995103 26.049939-52.729794 14.010182-78.46943l246.337164-250.246982c25.299006 11.670497 56.372752 7.261091 77.34303-13.364752 27.039806-26.599176 27.402861-70.432582 0.806788-97.475491-13.299588-13.519903-30.909285-20.368291-48.574836-20.51103zM270.705261 622.771976l-62.113358 66.665503 31.064436 33.345163 62.100946-66.674812z m170.440145 45.211151l-41.673697 12.964461a229.717333 229.717333 0 0 1 12.126643 32.280824 260.393891 260.393891 0 0 1 7.493818 34.207806l44.233697-4.486982a290.828412 290.828412 0 0 0-8.384388-38.216921 261.368242 261.368242 0 0 0-13.796073-36.749188z m-263.602424 54.799515L115.432727 789.454352l30.943418 33.217939-52.034715-0.570958 7.316946 19.232582-17.27457-18.540606L41.642667 868.662303l131.894303 1.455321 0.456145-47.141236-27.396654-0.310303 61.995442-66.550691z m747.107297 56.586861c-17.662448-0.217212-35.411782 6.268121-48.984437 19.511855a68.328727 68.328727 0 0 0-16.135757 24.551175l-255.410424 0.44994a68.338036 68.338036 0 0 0-14.953503-23.350303c-26.487467-27.148412-70.327079-27.685236-97.475491-1.19777a68.310109 68.310109 0 0 0-16.21954 24.774594l-8.961551 0.021721c0.791273-14.326691 1.024-28.74337 0.415806-43.215903l-44.550206 1.253624c0.589576 13.932606 0.341333 27.967612-0.484073 42.042958l-17.653139 0.027927v1.272243l-54.597819-0.601988-0.443733 47.141236 55.128436 0.605091v0.2048l16.390207-0.027927 16.31263 0.179976v-0.207904l38.260363-0.071369a68.297697 68.297697 0 0 0 15.204849 24.079515c26.49057 27.145309 70.330182 27.685236 97.475491 1.194667a68.33183 68.33183 0 0 0 16.508121-25.500703l254.696727-0.44994a68.313212 68.313212 0 0 0 15.294837 24.296727c26.487467 27.151515 70.327079 27.688339 97.475491 1.19777 27.145309-26.487467 27.685236-70.327079 1.194666-97.475491-13.243733-13.572655-30.8224-20.489309-48.487951-20.706521z m-706.746182 44.094061l-0.449939 47.141236 87.828169 0.961939 0.44994-47.141236z" /></svg>