<?xml version="1.0" standalone="no"?><!DOCTYPE svg PUBLIC "-//W3C//DTD SVG 1.1//EN" "http://www.w3.org/Graphics/SVG/1.1/DTD/svg11.dtd"><svg class="icon" width="200px" height="200.00px" viewBox="0 0 1024 1024" version="1.1" xmlns="http://www.w3.org/2000/svg"><path fill="#000000" d="M965.878766 310.509986c-0.109494-0.454348-0.276293-0.881067-0.413416-1.308809-0.412392-1.294482-0.936325-2.520403-1.583055-3.691065-0.193405-0.358157-0.372483-0.729617-0.593518-1.074472-0.895393-1.432629-1.927909-2.769067-3.139503-3.939729-0.206708-0.192382-0.454348-0.358157-0.661056-0.550539-1.101077-0.978281-2.286066-1.818415-3.581572-2.562359-0.205685-0.12382-0.358157-0.302899-0.577145-0.426719L521.904069 67.474764c-6.199189-3.278673-13.609972-3.278673-19.808138 0L68.677661 296.956296c-0.220011 0.12382-0.378623 0.302899-0.592494 0.426719-1.281179 0.743944-2.473331 1.584078-3.567245 2.562359-0.212848 0.192382-0.461511 0.358157-0.661056 0.550539-1.212618 1.171686-2.252297 2.5071-3.154853 3.939729-0.220011 0.343831-0.391926 0.716314-0.585331 1.074472-0.64673 1.170662-1.170662 2.396583-1.584078 3.691065-0.144286 0.426719-0.296759 0.853437-0.413416 1.308809-0.413416 1.65264-0.703011 3.360538-0.703011 5.151323l0 394.58073c0 7.865131 4.359284 15.069207 11.32186 18.733667l433.425434 227.579205c3.070942 1.611707 6.460132 2.424212 9.833973 2.424212s6.762007-0.812505 9.833973-2.424212L955.257871 728.975706c6.957459-3.664459 11.322883-10.868535 11.322883-18.733667L966.580754 315.66131C966.580754 313.870524 966.292182 312.162626 965.878766 310.509986zM511.999488 110.12105l388.066363 205.458395L511.999488 519.357572 123.934149 315.579445 511.999488 110.12105zM99.731934 350.662475l394.635989 207.235878 0 346.769818L99.731934 697.445596 99.731934 350.662475zM529.630031 904.668171 529.630031 557.898353l394.635989-207.235878 0 346.783121L529.630031 904.668171z"  /></svg>