<?xml version="1.0" standalone="no"?><!DOCTYPE svg PUBLIC "-//W3C//DTD SVG 1.1//EN" "http://www.w3.org/Graphics/SVG/1.1/DTD/svg11.dtd"><svg class="icon" width="200px" height="200.00px" viewBox="0 0 1024 1024" version="1.1" xmlns="http://www.w3.org/2000/svg"><path fill="#000000" d="M512 512m-64 0a64 64 0 1 0 128 0 64 64 0 1 0-128 0Z"  /><path fill="#000000" d="M992 480h-64c-12.8-204.8-179.2-364.8-384-384v-64C544 12.8 531.2 0 512 0s-32 12.8-32 32v64c-204.8 12.8-364.8 179.2-384 384h-64c-19.2 0-32 12.8-32 32s12.8 32 32 32h64c12.8 204.8 179.2 364.8 384 384v64c0 19.2 12.8 32 32 32s32-12.8 32-32v-64c204.8-12.8 364.8-179.2 384-384h64c19.2 0 32-12.8 32-32s-12.8-32-32-32z m-448 384v-64c0-19.2-12.8-32-32-32s-32 12.8-32 32v64c-166.4-12.8-300.8-147.2-320-320h64c19.2 0 32-12.8 32-32s-12.8-32-32-32h-64c12.8-166.4 147.2-300.8 320-320v64c0 19.2 12.8 32 32 32s32-12.8 32-32v-64c166.4 12.8 300.8 147.2 320 320h-64c-19.2 0-32 12.8-32 32s12.8 32 32 32h64c-19.2 166.4-153.6 300.8-320 320z"  /></svg>