<?xml version="1.0" standalone="no"?><!DOCTYPE svg PUBLIC "-//W3C//DTD SVG 1.1//EN" "http://www.w3.org/Graphics/SVG/1.1/DTD/svg11.dtd"><svg class="icon" width="200px" height="200.00px" viewBox="0 0 1024 1024" version="1.1" xmlns="http://www.w3.org/2000/svg"><path fill="#000000" d="M719.4624 472.5248l0 246.9376L472.4736 719.4624 472.4736 472.5248 719.4624 472.5248M764.0064 427.9808 427.9296 427.9808l0 336.0256 336.0256 0L763.9552 427.9808 764.0064 427.9808zM551.4752 304.5376l0 246.8864L304.5888 551.424 304.5888 304.5376 551.4752 304.5376M596.0704 259.9936 259.9936 259.9936l0 336.0256 336.0256 0L596.0192 259.9936 596.0704 259.9936zM51.2 102.4l921.6 0 0 51.2-921.6 0 0-51.2ZM51.2 870.4l102.4 0 0 102.4-102.4 0 0-102.4ZM51.2 870.4l921.6 0 0 51.2-921.6 0 0-51.2ZM102.4 51.2l51.2 0 0 921.6-51.2 0 0-921.6ZM870.4 51.2l51.2 0 0 921.6-51.2 0 0-921.6ZM51.2 51.2l102.4 0 0 102.4-102.4 0 0-102.4ZM460.8 51.2l102.4 0 0 102.4-102.4 0 0-102.4ZM870.4 51.2l102.4 0 0 102.4-102.4 0 0-102.4ZM460.8 870.4l102.4 0 0 102.4-102.4 0 0-102.4ZM870.4 870.4l102.4 0 0 102.4-102.4 0 0-102.4ZM51.2 460.8l102.4 0 0 102.4-102.4 0 0-102.4ZM870.4 460.8l102.4 0 0 102.4-102.4 0 0-102.4Z" /></svg>